<svg width="120" height="140" viewBox="0 0 120 140" fill="none" xmlns="http://www.w3.org/2000/svg">
  <defs>
    <pattern id="strawPatternStacked" x="0" y="0" width="4" height="4" patternUnits="userSpaceOnUse" patternTransform="rotate(45)">
      <line x1="0" y1="2" x2="4" y2="2" stroke="#00BFA6" stroke-width="0.5" opacity="0.2"/>
    </pattern>
  </defs>

  <!-- Icon centered -->
  <g transform="translate(30, 10)">
    <path d="M8 4 C8 4 8 14 15 14 L18 14 C25 14 25 20 25 20 L25 24 C25 24 25 30 32 30 L38 30 C38 30 38 38 38 42 L42 42 C42 42 42 48 42 52" 
          stroke="#00BFA6" stroke-width="4" stroke-linecap="round" stroke-linejoin="round" fill="none"/>
    <!-- Pattern overlay -->
    <path d="M8 4 C8 4 8 14 15 14 L18 14 C25 14 25 20 25 20 L25 24 C25 24 25 30 32 30 L38 30 C38 30 38 38 38 42 L42 42 C42 42 42 48 42 52" 
          stroke="url(#strawPatternStacked)" stroke-width="3.5" stroke-linecap="round" stroke-linejoin="round" fill="none"/>
    <!-- Top opening -->
    <circle cx="8" cy="4" r="3" fill="#003B46"/>
    <!-- Bottom opening -->
    <ellipse cx="42" cy="52" rx="3.5" ry="2" fill="#003B46"/>
    <!-- Highlights -->
    <circle cx="21.5" cy="17" r="1.2" fill="#FFD54F" opacity="0.8"/>
    <circle cx="35" cy="33" r="1.2" fill="#FFD54F" opacity="0.6"/>
  </g>

  <!-- Wordmark centered below -->
  <g transform="translate(10, 85)">
    <!-- Clean -->
    <path d="M0 10 C0 4.5 4.5 0 10 0 L12 0 L12 3 L10 3 C6.1 3 3 6.1 3 10 C3 13.9 6.1 17 10 17 L12 17 L12 20 L10 20 C4.5 20 0 15.5 0 10 Z" fill="#003B46"/>
    <rect x="16" y="0" width="3" height="20" rx="1.5" fill="#003B46"/>
    <path d="M23 10 C23 6.1 26.1 3 30 3 C33.9 3 37 6.1 37 10 L37 11.5 L26 11.5 C26.5 14.2 28.1 16 30 16 L33 16 L33 19 L30 19 C25.6 19 23 15.4 23 10 Z M26 8.5 L34 8.5 C33.5 6.5 32 5 30 5 C28 5 26.5 6.5 26 8.5 Z" fill="#003B46"/>
    <path d="M41 10 C41 6.1 44.1 3 48 3 C51.9 3 55 6.1 55 10 L55 20 L52 20 L52 17 C51 18.5 49.5 19 48 19 C44.1 19 41 15.9 41 10 Z M44 10 C44 13.9 46.1 16 48 16 C49.9 16 52 13.9 52 10 C52 6.1 49.9 4 48 4 C46.1 4 44 6.1 44 10 Z" fill="#003B46"/>
    <path d="M59 3 L62 3 L62 6 C63 4 64.5 3 66.5 3 C69.5 3 71 5.5 71 8.5 L71 20 L68 20 L68 9 C68 6.5 67 5 65 5 C63 5 62 6.5 62 9 L62 20 L59 20 L59 3 Z" fill="#003B46"/>
  </g>

  <!-- Sip -->
  <g transform="translate(26, 110)">
    <path d="M10 3 C6 3 3 5 3 8 C3 10.5 4.5 11.5 7 12 L10 12.5 C12 13 13 13.5 13 15 C13 16.5 11.5 17 10 17 L6 17 L6 20 L10 20 C14 20 16 18 16 15 C16 12.5 14.5 11.5 12 11 L9 10.5 C7 10 6 9.5 6 8 C6 6.5 7.5 6 10 6 L14 6 L14 3 L10 3 Z" fill="#00BFA6"/>
    <rect x="20" y="3" width="3" height="17" rx="1.5" fill="#00BFA6"/>
    <circle cx="21.5" cy="-2" r="1.5" fill="#00BFA6"/>
    <path d="M27 3 L30 3 L30 6 C31 4 32.5 3 34.5 3 C38.4 3 41 6.1 41 10 C41 13.9 38.4 17 34.5 17 C32.5 17 31 16 30 14 L30 25 L27 25 L27 3 Z M30 10 C30 13.9 32.1 16 34 16 C35.9 16 38 13.9 38 10 C38 6.1 35.9 4 34 4 C32.1 4 30 6.1 30 10 Z" fill="#00BFA6"/>
  </g>
</svg>